<mxfile host="app.diagrams.net" modified="2020-08-02T07:41:09.536Z" agent="5.0 (Windows NT 10.0; Win64; x64) AppleWebKit/537.36 (KHTML, like Gecko) Chrome/84.0.4147.105 Safari/537.36" etag="vIGQC_5UScUXqbfN4oHI" version="13.4.9" type="github">
  <diagram id="EEgQebKoUnd-hRVLEX6p" name="Page-1">
    <mxGraphModel dx="1038" dy="548" grid="1" gridSize="10" guides="1" tooltips="1" connect="1" arrows="1" fold="1" page="1" pageScale="1" pageWidth="827" pageHeight="1169" math="0" shadow="0">
      <root>
        <mxCell id="0" />
        <mxCell id="1" parent="0" />
        <mxCell id="WgcQLO-ECNiXeBgjNdwt-1" value="程序代码" style="rounded=0;whiteSpace=wrap;html=1;fontSize=14;" vertex="1" parent="1">
          <mxGeometry x="280" y="310" width="120" height="40" as="geometry" />
        </mxCell>
        <mxCell id="WgcQLO-ECNiXeBgjNdwt-2" value="堆" style="rounded=0;whiteSpace=wrap;html=1;fontSize=14;" vertex="1" parent="1">
          <mxGeometry x="280" y="270" width="120" height="40" as="geometry" />
        </mxCell>
        <mxCell id="WgcQLO-ECNiXeBgjNdwt-3" value="未分配" style="rounded=0;whiteSpace=wrap;html=1;fontSize=14;fillColor=#f5f5f5;strokeColor=#666666;fontColor=#333333;" vertex="1" parent="1">
          <mxGeometry x="280" y="130" width="120" height="140" as="geometry" />
        </mxCell>
        <mxCell id="WgcQLO-ECNiXeBgjNdwt-4" value="栈" style="rounded=0;whiteSpace=wrap;html=1;fontSize=14;" vertex="1" parent="1">
          <mxGeometry x="280" y="90" width="120" height="40" as="geometry" />
        </mxCell>
        <mxCell id="WgcQLO-ECNiXeBgjNdwt-5" value="0KB" style="text;html=1;align=center;verticalAlign=middle;resizable=0;points=[];autosize=1;fontSize=14;" vertex="1" parent="1">
          <mxGeometry x="240" y="340" width="40" height="20" as="geometry" />
        </mxCell>
        <mxCell id="WgcQLO-ECNiXeBgjNdwt-6" value="1KB" style="text;html=1;align=center;verticalAlign=middle;resizable=0;points=[];autosize=1;fontSize=14;" vertex="1" parent="1">
          <mxGeometry x="240" y="300" width="40" height="20" as="geometry" />
        </mxCell>
        <mxCell id="WgcQLO-ECNiXeBgjNdwt-7" value="2KB" style="text;html=1;align=center;verticalAlign=middle;resizable=0;points=[];autosize=1;fontSize=14;" vertex="1" parent="1">
          <mxGeometry x="240" y="260" width="40" height="20" as="geometry" />
        </mxCell>
        <mxCell id="WgcQLO-ECNiXeBgjNdwt-8" value="15KB" style="text;html=1;align=center;verticalAlign=middle;resizable=0;points=[];autosize=1;fontSize=14;" vertex="1" parent="1">
          <mxGeometry x="230" y="120" width="50" height="20" as="geometry" />
        </mxCell>
        <mxCell id="WgcQLO-ECNiXeBgjNdwt-9" value="16KB" style="text;html=1;align=center;verticalAlign=middle;resizable=0;points=[];autosize=1;fontSize=14;" vertex="1" parent="1">
          <mxGeometry x="230" y="80" width="50" height="20" as="geometry" />
        </mxCell>
        <mxCell id="WgcQLO-ECNiXeBgjNdwt-12" value="" style="shape=flexArrow;endArrow=classic;html=1;fontSize=14;fillColor=#fff2cc;strokeColor=#d6b656;" edge="1" parent="1">
          <mxGeometry width="50" height="50" relative="1" as="geometry">
            <mxPoint x="339.5" y="130" as="sourcePoint" />
            <mxPoint x="339.5" y="170" as="targetPoint" />
          </mxGeometry>
        </mxCell>
        <mxCell id="WgcQLO-ECNiXeBgjNdwt-14" value="" style="shape=flexArrow;endArrow=classic;html=1;fontSize=14;fillColor=#fff2cc;strokeColor=#d6b656;" edge="1" parent="1">
          <mxGeometry width="50" height="50" relative="1" as="geometry">
            <mxPoint x="339.5" y="270" as="sourcePoint" />
            <mxPoint x="339.5" y="230" as="targetPoint" />
          </mxGeometry>
        </mxCell>
        <mxCell id="WgcQLO-ECNiXeBgjNdwt-15" value="代码段：大小固定" style="text;html=1;align=left;verticalAlign=middle;resizable=0;points=[];autosize=1;fontSize=14;" vertex="1" parent="1">
          <mxGeometry x="400" y="320" width="130" height="20" as="geometry" />
        </mxCell>
        <mxCell id="WgcQLO-ECNiXeBgjNdwt-16" value="堆段：向上生长" style="text;html=1;align=left;verticalAlign=middle;resizable=0;points=[];autosize=1;fontSize=14;" vertex="1" parent="1">
          <mxGeometry x="400" y="280" width="110" height="20" as="geometry" />
        </mxCell>
        <mxCell id="WgcQLO-ECNiXeBgjNdwt-17" value="堆段：向下生长" style="text;html=1;align=left;verticalAlign=middle;resizable=0;points=[];autosize=1;fontSize=14;" vertex="1" parent="1">
          <mxGeometry x="400" y="100" width="110" height="20" as="geometry" />
        </mxCell>
      </root>
    </mxGraphModel>
  </diagram>
</mxfile>
